<svg xmlns="http://www.w3.org/2000/svg" viewBox="0 0 800 600">
  <defs>
    <!-- Create the intense orange glow effect -->
    <radialGradient id="fireGlow" cx="50%" cy="50%" r="50%">
      <stop offset="0%" style="stop-color:#ff6b00"/>
      <stop offset="70%" style="stop-color:#ff4400"/>
      <stop offset="100%" style="stop-color:#ff2200"/>
    </radialGradient>
    
    <!-- Noir shadow effect -->
    <filter id="noirShadow">
      <feGaussianBlur in="SourceAlpha" stdDeviation="4"/>
      <feOffset dx="0" dy="4" result="offsetblur"/>
      <feComponentTransfer>
        <feFuncA type="linear" slope="0.7"/>
      </feComponentTransfer>
      <feMerge> 
        <feMergeNode/>
        <feMergeNode in="SourceGraphic"/> 
      </feMerge>
    </filter>

    <!-- Texture overlay for gritty effect -->
    <filter id="noise">
      <feTurbulence type="fractalNoise" baseFrequency="0.7" numOctaves="3" result="noise"/>
      <feDisplacementMap in="SourceGraphic" in2="noise" scale="3"/>
    </filter>
  </defs>

  <!-- Background fire effect -->
  <rect width="800" height="600" fill="url(#fireGlow)"/>
  
  <!-- Abstract flame shapes -->
  <g filter="url(#noise)" opacity="0.8">
    <path d="M0,0 Q400,200 800,0 T800,600" fill="#ff8c00" opacity="0.3"/>
    <path d="M0,100 Q400,300 800,100 T800,600" fill="#ff6b00" opacity="0.4"/>
    <path d="M0,200 Q400,400 800,200 T800,600" fill="#ff4500" opacity="0.5"/>
  </g>

  <!-- Silhouette -->
  <g filter="url(#noirShadow)">
    <path d="M300,150 Q400,100 500,150 Q450,300 400,400 Q350,300 300,150" 
          fill="black" opacity="0.9"/>
    <!-- Glasses reflection -->
    <circle cx="350" cy="200" r="20" fill="#ff6b00" opacity="0.4"/>
    <circle cx="450" cy="200" r="20" fill="#ff6b00" opacity="0.4"/>
  </g>

  <!-- Hair details -->
  <g opacity="0.8">
    <path d="M320,150 Q400,100 480,150 Q460,200 400,250 Q340,200 320,150" 
          fill="black" stroke="none"/>
    <path d="M340,150 C360,140 440,140 460,150 C440,200 360,200 340,150" 
          fill="none" stroke="black" stroke-width="2"/>
  </g>

  <!-- Lighting highlights -->
  <g opacity="0.6">
    <path d="M0,0 L800,0 L800,600 L0,600" 
          fill="none" 
          stroke="#fff5e6" 
          stroke-width="1" 
          stroke-opacity="0.2">
      <animate attributeName="stroke-opacity"
               values="0.2;0.4;0.2"
               dur="3s"
               repeatCount="indefinite"/>
    </path>
  </g>
</svg>