<svg xmlns="http://www.w3.org/2000/svg" viewBox="0 0 800 600">
  <!-- Background with subtle gradient -->
  <defs>
    <radialGradient id="bg-gradient" cx="50%" cy="50%" r="70%">
      <stop offset="0%" style="stop-color:#1a0b2e"/>
      <stop offset="100%" style="stop-color:#000000"/>
    </radialGradient>
    
    <!-- Tentacle-like filter -->
    <filter id="displacement" x="-20%" y="-20%" width="140%" height="140%">
      <feTurbulence type="fractalNoise" baseFrequency="0.03" numOctaves="5" seed="1"/>
      <feDisplacementMap in="SourceGraphic" scale="20"/>
    </filter>

    <!-- Glow effect -->
    <filter id="glow">
      <feGaussianBlur stdDeviation="3" result="coloredBlur"/>
      <feMerge>
        <feMergeNode in="coloredBlur"/>
        <feMergeNode in="SourceGraphic"/>
      </feMerge>
    </filter>
  </defs>

  <!-- Background -->
  <rect width="800" height="600" fill="url(#bg-gradient)"/>

  <!-- Eldritch symbols scattered in background -->
  <g fill="#3a1b4a" opacity="0.3" filter="url(#displacement)">
    <path d="M200,100 l20,20 l-40,0 z"/>
    <circle cx="600" cy="400" r="15"/>
    <path d="M400,200 l0,40 l40,-20 z"/>
    <path d="M100,500 l30,-30 l-30,-30 l30,30 z"/>
  </g>

  <!-- Main DNA structure -->
  <g transform="translate(400,300)" filter="url(#glow)">
    <!-- First helix strand -->
    <path d="M-150,-200 
             Q-100,-150 -50,-100
             T50,0 
             T150,100
             T250,200"
          stroke="#7b1fa2" 
          fill="none"
          stroke-width="8"
          filter="url(#displacement)"/>

    <!-- Second helix strand -->
    <path d="M-250,-200 
             Q-200,-150 -150,-100
             T-50,0 
             T50,100
             T150,200"
          stroke="#4a148c"
          fill="none"
          stroke-width="8"
          filter="url(#displacement)"/>

    <!-- Connecting "rungs" with eldritch modifications -->
    <g stroke="#9c27b0" stroke-width="4">
      <path d="M-200,-150 Q-150,-180 -100,-150" filter="url(#displacement)"/>
      <path d="M-150,-100 Q-100,-130 -50,-100" filter="url(#displacement)"/>
      <path d="M-100,-50 Q-50,-80 0,-50" filter="url(#displacement)"/>
      <path d="M-50,0 Q0,-30 50,0" filter="url(#displacement)"/>
      <path d="M0,50 Q50,20 100,50" filter="url(#displacement)"/>
      <path d="M50,100 Q100,70 150,100" filter="url(#displacement)"/>
    </g>

    <!-- Ethereal particles -->
    <g fill="#ce93d8" filter="url(#glow)">
      <circle cx="-150" cy="-150" r="3">
        <animate attributeName="r" values="2;4;2" dur="3s" repeatCount="indefinite"/>
      </circle>
      <circle cx="-50" cy="-50" r="3">
        <animate attributeName="r" values="3;5;3" dur="2s" repeatCount="indefinite"/>
      </circle>
      <circle cx="50" cy="50" r="3">
        <animate attributeName="r" values="2;4;2" dur="4s" repeatCount="indefinite"/>
      </circle>
      <circle cx="150" cy="150" r="3">
        <animate attributeName="r" values="3;5;3" dur="3s" repeatCount="indefinite"/>
      </circle>
    </g>

    <!-- Additional eldritch elements -->
    <g stroke="#4a148c" fill="none" stroke-width="2" opacity="0.6">
      <path d="M-200,-180 Q-150,-220 -100,-180" filter="url(#displacement)"/>
      <path d="M-100,-80 Q-50,-120 0,-80" filter="url(#displacement)"/>
      <path d="M0,20 Q50,-20 100,20" filter="url(#displacement)"/>
      <path d="M100,120 Q150,80 200,120" filter="url(#displacement)"/>
    </g>
  </g>

  <!-- Ethereal wisps -->
  <g opacity="0.4" filter="url(#glow)">
    <path d="M100,100 Q200,150 300,100 T500,100" 
          stroke="#7c4dff" 
          fill="none" 
          stroke-width="2">
      <animate attributeName="d" 
               dur="10s" 
               repeatCount="indefinite"
               values="M100,100 Q200,150 300,100 T500,100;
                       M100,120 Q200,170 300,120 T500,120;
                       M100,100 Q200,150 300,100 T500,100"/>
    </path>
    <path d="M200,400 Q300,450 400,400 T600,400" 
          stroke="#b388ff" 
          fill="none" 
          stroke-width="2">
      <animate attributeName="d" 
               dur="8s" 
               repeatCount="indefinite"
               values="M200,400 Q300,450 400,400 T600,400;
                       M200,380 Q300,430 400,380 T600,380;
                       M200,400 Q300,450 400,400 T600,400"/>
    </path>
  </g>
</svg>
