<svg xmlns="http://www.w3.org/2000/svg" viewBox="0 0 800 600">
  <defs>
    <pattern id="grid" width="40" height="40" patternUnits="userSpaceOnUse">
      <path d="M 40 0 L 0 0 0 40" fill="none" stroke="#ddd" stroke-width="0.5"/>
    </pattern>
    
    <filter id="noise">
      <feTurbulence type="fractalNoise" baseFrequency="0.7" numOctaves="3" result="noise"/>
      <feDisplacementMap in="SourceGraphic" in2="noise" scale="2"/>
    </filter>

    <filter id="glow">
      <feGaussianBlur stdDeviation="2" result="coloredBlur"/>
      <feMerge>
        <feMergeNode in="coloredBlur"/>
        <feMergeNode in="SourceGraphic"/>
      </feMerge>
    </filter>
  </defs>

  <!-- Background grid -->
  <rect width="800" height="600" fill="white"/>
  <rect width="800" height="600" fill="url(#grid)"/>

  <!-- Side data columns -->
  <g transform="translate(20,20)" filter="url(#noise)">
    <rect width="100" height="560" fill="none" stroke="#000" stroke-width="0.5"/>
    {Array.from({length: 20}).map((_, i) => 
      `<line x1="0" y1="${i*28}" x2="100" y2="${i*28}" stroke="#000" stroke-width="0.5"/>`
    )}
  </g>
  <g transform="translate(680,20)" filter="url(#noise)">
    <rect width="100" height="560" fill="none" stroke="#000" stroke-width="0.5"/>
    {Array.from({length: 20}).map((_, i) => 
      `<line x1="0" y1="${i*28}" x2="100" y2="${i*28}" stroke="#000" stroke-width="0.5"/>`
    )}
  </g>

  <!-- Crystalline crow form -->
  <g transform="translate(250,100)">
    <!-- Core shape -->
    <path d="M150,200 
             C 200,150 250,150 300,200
             L 250,300
             C 200,250 150,250 150,200 Z" 
          fill="black"/>
    
    <!-- Crystalline patterns -->
    <g filter="url(#noise)" stroke="#444" stroke-width="0.5" fill="none">
      {Array.from({length: 50}).map(() =>
        `<line x1="${Math.random()*300}" 
               y1="${Math.random()*300}" 
               x2="${Math.random()*300}" 
               y2="${Math.random()*300}"/>`
      )}
    </g>

    <!-- Wing impressions -->
    <path d="M100,150 Q200,50 300,150" 
          stroke="#000" 
          stroke-width="2"
          fill="none"
          filter="url(#noise)"/>
    <path d="M100,250 Q200,350 300,250" 
          stroke="#000" 
          stroke-width="2"
          fill="none"
          filter="url(#noise)"/>

    <!-- Red eyes -->
    <circle cx="180" cy="180" r="5" fill="#ff0000" filter="url(#glow)"/>
    <circle cx="220" cy="180" r="5" fill="#ff0000" filter="url(#glow)"/>
  </g>

  <!-- Data points -->
  <g font-family="monospace" font-size="8" fill="#666">
    <text x="30" y="40">DATA.0x01</text>
    <text x="30" y="60">CROW.PATTERN</text>
    <text x="30" y="80">CRYSTAL.FORM</text>
    <text x="690" y="40">SNOW.IMPRINT</text>
    <text x="690" y="60">VOID.SIGNATURE</text>
    <text x="690" y="80">ERROR.LOG</text>
  </g>
</svg>